<svg width="1440" height="140" viewBox="0 0 1440 140" fill="none" xmlns="http://www.w3.org/2000/svg">
<path d="M1440 140H0V99.5L43 110L80 118L134 127L177 131L205 133L215 134H242L271 133L294 132L314 130L350 125L371 121L380 119L408 112L428 106L446 100L467 92L487 84L517 72L568 53L596 44L624 35L655 26L671 22L709 14L739 9L770 5L799 2L817 1L848 0H864L907 1L986 7L1032 13L1077 20L1106 25L1142 32L1158 35L1196 43L1247 55L1288 65L1308 70L1320 73L1346 80L1376 88L1401 95L1412 98L1426 102L1440 106V140Z" fill="#F8FBFE"/>
</svg>
